<svg width="330" height="96" viewBox="0 0 330 96" fill="none" xmlns="http://www.w3.org/2000/svg">
  <defs>
    <linearGradient id="ringGrad" x1="12" y1="12" x2="84" y2="84" gradientUnits="userSpaceOnUse">
      <stop offset="0" stop-color="#22e8d6"/>
      <stop offset="0.45" stop-color="#22c3e6"/>
      <stop offset="1" stop-color="#3b6cf5"/>
    </linearGradient>
    <linearGradient id="playGrad" x1="38" y1="36" x2="59" y2="58" gradientUnits="userSpaceOnUse">
      <stop offset="0" stop-color="#37c9f0"/>
      <stop offset="1" stop-color="#4a7bf7"/>
    </linearGradient>
  </defs>
  <g transform="translate(0, -2) scale(0.44)">
    <path d="M 126.63 99.35 A 28 28 0 1 1 122.65 91.54" stroke="url(#ringGrad)" stroke-width="6.5" stroke-linecap="round"/>
    <path d="M 141.85 94.40 A 44 44 0 1 1 135.60 82.14" stroke="url(#ringGrad)" stroke-width="6.5" stroke-linecap="round"/>
    <path d="M 157.06 89.46 A 60 60 0 1 1 148.54 72.73" stroke="url(#ringGrad)" stroke-width="6.5" stroke-linecap="round"/>
    <path d="M 172.28 84.51 A 76 76 0 1 1 161.49 63.33" stroke="url(#ringGrad)" stroke-width="6.5" stroke-linecap="round"/>
    <path d="M 154.18 38.66 A 88 88 0 0 1 187.95 104.93" stroke="url(#ringGrad)" stroke-width="5" stroke-linecap="round" opacity="0.85"/>
    <path d="M 161.57 29.20 A 100 100 0 0 1 199.94 104.51" stroke="url(#ringGrad)" stroke-width="5" stroke-linecap="round" opacity="0.85"/>
    <path d="M 92 84 L 130 108 L 92 132 Z" fill="url(#playGrad)"/>
  </g>
  <text x="106" y="65" font-family="Inter, 'Helvetica Neue', Arial, sans-serif" font-size="46" font-weight="700" letter-spacing="-1" fill="#e2e8f0">Scoutr</text>
</svg>
